<svg width="81" height="80" viewBox="0 0 81 80" fill="none" xmlns="http://www.w3.org/2000/svg">
<path d="M80.5 0H0.5V80H80.5V0Z" fill="#87BCF6"/>
<path d="M73.7954 6.70312H7.20459V73.2944H73.7954V6.70312Z" fill="#252653"/>
<path fill-rule="evenodd" clip-rule="evenodd" d="M59.8126 31.4529C53.8885 28.4466 43.6895 29.9029 43.6895 37.7463C43.6895 43.5873 47.7061 45.8863 52.6169 47.8159C59.5954 50.557 52.8133 55.7374 44.2943 50.3801C44.2943 50.3801 43.9893 50.2293 43.8394 50.3801C43.6895 50.5309 43.6895 50.6818 43.6895 50.8378C43.6895 50.9887 43.6895 56.4655 43.6895 56.4655C46.667 57.9999 48.8898 58.7801 52.3274 58.7437C63.4156 58.6293 65.0129 47.9459 59.1147 43.837C58.0447 43.088 55.1809 41.5952 54.2762 41.2468C49.5877 39.4471 49.9857 36.8881 51.4745 35.5982C53.1183 34.1679 57.6776 36.3316 59.5954 37.5383C60.7585 38.2613 60.9498 37.3615 60.9446 36.5709L60.9291 32.8312C60.9291 31.9418 60.6241 31.869 59.8126 31.4529ZM25.5712 40.7943V27.0942C25.5712 27.0266 25.8089 26.7926 25.871 26.7926C31.6399 26.4961 34.9224 27.63 35.2171 33.8298C35.5531 40.9451 29.6239 41.0959 25.5712 41.0959V40.7943ZM18.6133 21.7682V58.598H25.5712V46.7289C34.1212 47.3426 41.8338 44.2583 41.8338 34.3135C41.8338 30.3034 40.5931 26.2672 37.6518 23.8279C33.5422 20.4159 23.9377 21.1753 18.6133 21.7682Z" fill="#87BCF6"/>
</svg>
